<svg width="191" height="45" viewBox="0 0 191 45" fill="none" xmlns="http://www.w3.org/2000/svg">
<g clip-path="url(#clip0_1321_993)">
<path d="M88.1181 29.4507C85.3481 26.3317 83.9705 22.1931 83.9705 17.0648C83.9705 11.9365 85.3481 7.81288 88.1181 4.67892C89.3529 3.19961 90.8997 2.01277 92.6474 1.20381C94.395 0.394854 96.2999 -0.0161119 98.2251 0.000483304C100.137 0.0132588 102.015 0.502457 103.691 1.42394C105.366 2.34542 106.786 3.67019 107.823 5.27872H108.437V0.930173H118.978V33.1994H108.437V28.8509H107.823C106.785 30.4575 105.364 31.7808 103.689 32.7021C102.014 33.6233 100.136 34.1137 98.2251 34.1291C96.2999 34.1457 94.395 33.7347 92.6474 32.9258C90.8997 32.1168 89.3529 30.93 88.1181 29.4507ZM96.6679 11.1118C95.4251 12.5213 94.8112 14.5006 94.8112 17.0648C94.8112 19.6289 95.4251 21.6233 96.6679 23.0178C97.9107 24.4273 99.5578 25.1321 101.624 25.1321C103.69 25.1321 105.337 24.4273 106.58 23.0178C107.823 21.6083 108.437 19.6289 108.437 17.0648C108.437 14.5006 107.823 12.5213 106.58 11.1118C105.337 9.70225 103.69 8.99748 101.624 8.99748C99.5578 8.99748 97.9107 9.70225 96.6679 11.1118ZM122.826 22.6579H133.368C133.532 23.2727 133.877 23.8575 134.416 24.3974C135.539 25.522 137.141 26.0768 139.252 26.0768C142.142 26.0768 143.594 25.357 143.594 23.9025C143.594 23.2427 143.175 22.7179 142.352 22.313C141.528 21.9232 140.285 21.5183 138.638 21.0985C137.276 20.7686 136.392 20.5586 135.973 20.4837C135.554 20.4087 134.685 20.1688 133.368 19.7639C132.05 19.374 131.107 19.0141 130.553 18.7142C129.999 18.4143 129.235 17.9495 128.262 17.3497C127.436 16.8847 126.716 16.2513 126.15 15.4903C125.66 14.7321 125.253 13.9226 124.938 13.0761C124.257 11.2793 124.193 9.30711 124.754 7.46951C125.315 5.6319 126.47 4.03313 128.037 2.92451C130.478 0.975159 133.907 0.000483304 138.324 0.000483304C143.864 0.000483304 148.236 1.81488 151.47 5.45866C152.755 7.03293 153.667 8.87869 154.136 10.8569H143.909C143.715 10.2936 143.421 9.77029 143.04 9.31238C142.082 8.27772 140.72 7.76789 138.953 7.76789C136.467 7.76789 135.239 8.48765 135.239 9.94217C135.239 10.6469 135.659 11.1868 136.482 11.5616C137.306 11.9365 138.563 12.2814 140.27 12.6113C144.523 13.6009 147.398 14.4707 148.88 15.2204C152.593 17.0348 154.465 19.8389 154.465 23.6026C154.465 26.5866 153.147 29.0908 150.527 31.1151C147.907 33.1394 144.148 34.1591 139.282 34.1591C133.293 34.1591 128.726 32.2547 125.581 28.446C124.189 26.7906 123.25 24.8012 122.856 22.6729L122.826 22.6579ZM155.663 0.930173H166.504L172.089 24.2174H173.945L180.144 0.930173H190.985L178.587 45.0155H167.746L171.16 33.2144H164.033L155.663 0.930173ZM68.6378 22.6579C68.3384 23.2277 67.979 23.7076 67.5597 24.0825C66.4367 25.2071 64.7897 25.7619 62.6036 25.7619C60.7469 25.7619 59.2196 25.1771 58.0517 23.9925C56.8837 22.8079 56.1201 21.1284 55.7907 18.9392H80.2721V17.0798C80.2987 14.831 79.8617 12.6009 78.9883 10.5291C78.1149 8.45721 76.8239 6.58814 75.1961 5.0388C71.8122 1.67992 67.6196 0.0154783 62.6185 0.0154783C57.6174 0.0154783 53.5297 1.69492 50.1008 5.0388C46.6719 8.39768 44.95 12.4014 44.95 17.0798C44.95 21.7582 46.6569 25.7619 50.1008 29.1208C51.7425 30.7585 53.6973 32.0475 55.8482 32.9107C57.9991 33.7738 60.3019 34.1933 62.6185 34.1441C68.6977 34.1441 73.3694 32.1798 76.6336 28.2511C78.0561 26.6766 79.1341 24.8022 79.8678 22.6579H68.6528H68.6378ZM58.3811 9.91218C59.534 8.89252 60.9415 8.39768 62.6036 8.39768C64.2656 8.39768 65.6581 8.90751 66.826 9.91218C67.9582 10.8946 68.7586 12.2043 69.117 13.6609H56.1051C56.4598 12.2027 57.2608 10.892 58.396 9.91218H58.3811ZM11.9787 21.6233H32.2077V13.376H11.9787V21.6233ZM8.23534 1.35003H0V33.6043H32.2077V25.357H8.23534V1.35003ZM11.9787 1.35003V9.59728H32.2077V1.36503H11.9787V1.35003Z" fill="black"/>
</g>
<defs>
<clipPath id="clip0_1321_993">
<rect width="191" height="45" fill="white"/>
</clipPath>
</defs>
<script xmlns=""/></svg>