<svg width="367" height="66" viewBox="0 0 367 66" fill="none" xmlns="http://www.w3.org/2000/svg">
<g clip-path="url(#clip0_1321_987)">
<path fill-rule="evenodd" clip-rule="evenodd" d="M256.779 50.6692C255.659 50.6832 254.548 50.4747 253.509 50.0558C252.471 49.637 251.526 49.0161 250.729 48.2292C249.129 46.6292 248.049 44.1992 248.049 40.9192C248.049 37.5992 249.129 35.1792 250.729 33.5792C251.529 32.8 252.476 32.1868 253.514 31.7749C254.552 31.363 255.662 31.1606 256.779 31.1792C259.059 31.1792 261.229 31.9792 262.829 33.5792C264.429 35.1792 265.499 37.5992 265.499 40.9192C265.499 44.2392 264.429 46.6592 262.829 48.2592C262.028 49.0384 261.082 49.6516 260.043 50.0635C259.005 50.4754 257.896 50.6779 256.779 50.6592V50.6692ZM256.779 20.5692C245.199 20.5692 236.429 29.0892 236.429 40.9192C236.429 52.6692 245.199 61.2692 256.779 61.2692C268.359 61.2692 277.129 52.6692 277.129 40.9192C277.129 29.0892 268.359 20.5692 256.779 20.5692ZM160.499 50.9492C159.379 50.9632 158.268 50.7547 157.229 50.3358C156.191 49.917 155.246 49.2961 154.449 48.5092C152.849 46.9092 151.779 44.4892 151.779 41.2092C151.779 37.8892 152.859 35.4592 154.449 33.8692C155.249 33.087 156.197 32.4712 157.238 32.0576C158.278 31.6439 159.389 31.4405 160.509 31.4592C162.789 31.4592 164.959 32.2692 166.559 33.8592C168.159 35.4592 169.229 37.8892 169.229 41.1992C169.229 44.5192 168.149 46.9492 166.559 48.5392C165.758 49.3214 164.81 49.9372 163.77 50.3508C162.73 50.7645 161.618 50.9679 160.499 50.9492ZM160.499 20.8492C148.929 20.8492 140.159 29.3792 140.159 41.1992C140.159 52.9592 148.929 61.5492 160.499 61.5492C172.079 61.5492 180.849 52.9492 180.849 41.1992C180.849 29.3792 172.079 20.8592 160.509 20.8592L160.499 20.8492ZM308.769 61.1392H320.319V38.1992C320.319 36.2992 320.919 34.6492 321.959 33.4892C322.536 32.8618 323.243 32.367 324.03 32.039C324.818 31.711 325.667 31.5575 326.519 31.5892C328.599 31.5892 330.019 32.2892 330.929 33.3492C331.859 34.4292 332.329 35.9992 332.329 37.8992V61.1392H343.809V38.1992C343.809 36.3492 344.409 34.6992 345.449 33.5092C346.011 32.8822 346.703 32.3855 347.476 32.0539C348.25 31.7223 349.087 31.5637 349.929 31.5892C352.059 31.5892 353.469 32.2892 354.369 33.3492C355.289 34.4292 355.749 35.9992 355.749 37.8992V61.1392H366.999V35.8392C366.999 30.6692 365.299 26.8992 362.609 24.4392C359.939 21.9892 356.379 20.8992 352.809 20.8992C350.259 20.8992 347.929 21.3392 345.839 22.3892C344.049 23.2892 342.479 24.6092 341.099 26.4492C338.869 22.8192 334.799 20.8992 329.999 20.8992C326.479 20.8992 322.429 22.2992 319.869 24.9992V21.8392H308.769V61.1392ZM304.419 21.8692V33.6392L303.519 33.4592C302.449 33.2492 301.519 33.1692 300.659 33.1692C298.209 33.1692 296.029 33.7692 294.469 35.2292C292.919 36.6792 291.849 39.0892 291.849 42.9692V61.1392H280.329V21.8392H291.549V25.6392C294.319 22.2992 298.629 21.6392 301.339 21.6392C302.199 21.6392 302.989 21.7292 303.739 21.7992L304.419 21.8692ZM96.7188 42.1992H107.979L108.109 42.3292C108.189 42.4092 108.249 42.5292 108.259 42.6592C108.307 43.7163 108.566 44.7532 109.019 45.7094C109.472 46.6657 110.111 47.5222 110.899 48.2292C112.381 49.4387 114.247 50.0773 116.159 50.0292C117.218 50.0647 118.271 49.8692 119.247 49.4565C120.223 49.0438 121.097 48.4237 121.809 47.6392C123.193 45.9606 123.915 43.8335 123.839 41.6592V8.73922H136.019V41.9992C136.019 52.6492 127.869 61.5492 116.239 61.5492C110.439 61.5492 105.559 59.6192 102.139 56.2692C98.7987 52.9992 96.8088 48.3292 96.7188 42.6492V42.1992ZM234.799 14.0692L235.439 14.2592V5.33922L235.139 5.20922C234.493 4.95221 233.818 4.77425 233.129 4.67922C232.279 4.53922 231.279 4.44922 230.259 4.44922C226.289 4.44922 221.829 5.76922 219.519 8.13922C217.209 10.4992 215.929 13.8692 215.929 17.9092V19.7892H210.129V30.0292H215.929V61.1392H227.579V30.0292H235.439V19.7892H227.579V18.0492C227.579 16.2392 228.209 15.1892 229.019 14.5892C229.883 14.0005 230.913 13.7028 231.959 13.7392C233.459 13.7392 234.339 13.9392 234.799 14.0692ZM205.959 51.9492L206.559 51.7592V60.7092L206.279 60.8492C205.859 61.0492 205.179 61.2392 204.389 61.3792C203.589 61.5092 202.659 61.5992 201.689 61.5992C197.969 61.5992 193.789 60.2792 191.619 57.8992C189.449 55.5292 188.249 52.1492 188.249 48.0992V30.0292H182.799V19.8392H188.249V8.79922H199.179V19.8492H206.559V30.0492H199.179V47.9592C199.179 49.7792 199.779 50.8292 200.539 51.4392C201.319 52.0692 202.349 52.2892 203.299 52.2892C204.709 52.2892 205.529 52.0892 205.959 51.9592V51.9492Z" fill="#0A1551"/>
<path d="M16.43 62.7296C17.67 63.9296 16.79 65.9996 15.03 65.9996H3.95C2.91734 66.0129 1.92154 65.6161 1.18104 64.8963C0.440538 64.1764 0.015802 63.1922 0 62.1596V51.4396C0 49.7196 2.13 48.8696 3.38 50.0796L16.43 62.7296Z" fill="#0A1551"/>
<path d="M33.7216 63.5601C32.9446 62.7886 32.3279 61.871 31.907 60.8601C31.4862 59.8492 31.2695 58.7651 31.2695 57.6701C31.2695 56.5751 31.4862 55.4909 31.907 54.4801C32.3279 53.4692 32.9446 52.5516 33.7216 51.7801L45.5416 40.0401C47.1187 38.4755 49.2502 37.5977 51.4716 37.5977C53.6931 37.5977 55.8246 38.4755 57.4016 40.0401C58.1787 40.8116 58.7954 41.7292 59.2162 42.7401C59.6371 43.7509 59.8537 44.8351 59.8537 45.9301C59.8537 47.0251 59.6371 48.1092 59.2162 49.1201C58.7954 50.131 58.1787 51.0486 57.4016 51.8201L45.5816 63.5601C44.0046 65.1246 41.8731 66.0025 39.6516 66.0025C37.4302 66.0025 35.2987 65.1246 33.7216 63.5601Z" fill="#FFB629"/>
<path d="M2.49898 34.0491C1.72194 33.2776 1.10523 32.36 0.684384 31.3491C0.263539 30.3382 0.046875 29.254 0.046875 28.1591C0.046875 27.0641 0.263539 25.9799 0.684384 24.969C1.10523 23.9582 1.72194 23.0405 2.49898 22.2691L22.389 2.49906C23.9661 0.934533 26.0975 0.0566406 28.319 0.0566406C30.5404 0.0566406 32.6719 0.934533 34.249 2.49906C35.026 3.27054 35.6427 4.18816 36.0636 5.19904C36.4844 6.20992 36.7011 7.29408 36.7011 8.38906C36.7011 9.48404 36.4844 10.5682 36.0636 11.5791C35.6427 12.59 35.026 13.5076 34.249 14.2791L14.349 34.0491C12.7723 35.6105 10.643 36.4865 8.42398 36.4865C6.20495 36.4865 4.07563 35.6105 2.49898 34.0491Z" fill="#0099FF"/>
<path d="M18.7607 48.1509C17.9837 47.3794 17.3669 46.4618 16.9461 45.451C16.5253 44.4401 16.3086 43.3559 16.3086 42.2609C16.3086 41.166 16.5253 40.0818 16.9461 39.0709C17.3669 38.06 17.9837 37.1424 18.7607 36.3709L45.6307 9.67093C47.2078 8.10641 49.3392 7.22852 51.5607 7.22852C53.7822 7.22852 55.9136 8.10641 57.4907 9.67093C58.2677 10.4424 58.8844 11.36 59.3053 12.3709C59.7261 13.3818 59.9428 14.466 59.9428 15.5609C59.9428 16.6559 59.7261 17.7401 59.3053 18.751C58.8844 19.7618 58.2677 20.6794 57.4907 21.4509L30.6207 48.1509C29.0436 49.7155 26.9122 50.5934 24.6907 50.5934C22.4692 50.5934 20.3378 49.7155 18.7607 48.1509Z" fill="#FF6100"/>
</g>
<defs>
<clipPath id="clip0_1321_987">
<rect width="367" height="66" fill="white"/>
</clipPath>
</defs>
<script xmlns=""/></svg>