<svg id="sdc-logo-header" xmlns="http://www.w3.org/2000/svg" width="218" height="47" viewBox="0 0 218 47">
  <path id="c" d="M393.263,164.456a7.03,7.03,0,0,1-.694.761,6.56,6.56,0,0,1-4.646,1.841,6.116,6.116,0,0,1-4.567-1.952,6.422,6.422,0,0,1-1.893-4.618,6.021,6.021,0,0,1,1.947-4.521,6.568,6.568,0,0,1,4.7-1.856,6.09,6.09,0,0,1,4.551,1.934,6.64,6.64,0,0,1,.6.72v-3.789a9.357,9.357,0,0,0-5.53-1.715,8.827,8.827,0,0,0-6.578,2.769,9.188,9.188,0,0,0-2.7,6.649,8.775,8.775,0,0,0,2.771,6.536,9.645,9.645,0,0,0,12.036,1.071Z" transform="translate(-231 -124.843)" fill="#075484"/>
  <path id="o" d="M412.3,154.214a9.382,9.382,0,0,0-6.782-2.752,8.845,8.845,0,0,0-6.58,2.77,9.19,9.19,0,0,0-2.694,6.648,8.776,8.776,0,0,0,2.771,6.539,9.614,9.614,0,0,0,13.344,0,8.743,8.743,0,0,0,2.771-6.5,8.985,8.985,0,0,0-2.83-6.7m-1.947,11.206a6.555,6.555,0,0,1-4.642,1.839,6.126,6.126,0,0,1-4.569-1.953,6.407,6.407,0,0,1-1.888-4.613,6.009,6.009,0,0,1,1.945-4.523,6.561,6.561,0,0,1,4.7-1.856,6.079,6.079,0,0,1,4.55,1.935,6.456,6.456,0,0,1,1.866,4.667,5.919,5.919,0,0,1-1.963,4.5" transform="translate(-231 -124.843)" fill="#075484"/>
  <path id="m" d="M441.6,169.555h-3.207V156.841a2.309,2.309,0,0,0-1.02-1.852,3.391,3.391,0,0,0-2.08-.794,4.394,4.394,0,0,0-2.947,1.358,3.807,3.807,0,0,0-1.474,2.689v11.313h-3.129V157.713a3.311,3.311,0,0,0-1.084-2.477,3.623,3.623,0,0,0-2.6-1.041,4.445,4.445,0,0,0-2.747,1.172,3.164,3.164,0,0,0-1.443,2.306v11.882h-2.889V152.019h2.889v3.017a6.928,6.928,0,0,1,1.955-2.392,4.863,4.863,0,0,1,3.008-1.021,6.044,6.044,0,0,1,3.456.984,5.445,5.445,0,0,1,2.1,2.8,5.735,5.735,0,0,1,2.357-2.776,6.618,6.618,0,0,1,3.532-1.012,5.8,5.8,0,0,1,3.417,1.133,4.427,4.427,0,0,1,1.905,2.989Z" transform="translate(-231 -124.843)" fill="#075484"/>
  <path id="red_dot" d="M392.724,160.623a4.464,4.464,0,1,1-4.462-4.468,4.462,4.462,0,0,1,4.462,4.468" transform="translate(-231 -124.843)" fill="#c32026"/>
  <path id="S" d="M231,158.675l3.024-7.3a20.827,20.827,0,0,0,3.482,1.946,7.291,7.291,0,0,0,2.7.661,2.309,2.309,0,0,0,1.393-.356,1.153,1.153,0,0,0,.482-.993q0-.891-2.035-1.3-.687-.138-1.074-.231a9.762,9.762,0,0,1-4.868-2.442,5.977,5.977,0,0,1-1.524-4.274,7.33,7.33,0,0,1,3.109-6.1,13.038,13.038,0,0,1,8.1-2.364,23.264,23.264,0,0,1,4.78.478,18.826,18.826,0,0,1,4.28,1.414l-2.819,7.146a17.281,17.281,0,0,0-2.882-1.609,5.921,5.921,0,0,0-2.22-.539,2.2,2.2,0,0,0-1.263.333,1.023,1.023,0,0,0-.476.879q0,.889,2.7,1.462c.427.091.761.165,1.008.227a10.836,10.836,0,0,1,5.108,2.413,5.523,5.523,0,0,1,1.636,4.151,7.841,7.841,0,0,1-3.215,6.479,13.418,13.418,0,0,1-8.487,2.505A24.239,24.239,0,0,1,231,158.675" transform="translate(-231 -124.843)" fill="#075484"/>
  <path id="a" d="M282.283,160.4V136.641h-11V139.8a10.457,10.457,0,0,0-3.344-2.925,8.508,8.508,0,0,0-4.016-.948,8.287,8.287,0,0,0-6.928,3.518q-2.658,3.519-2.656,9.29a14.256,14.256,0,0,0,2.725,9.026,8.342,8.342,0,0,0,6.859,3.505,8.233,8.233,0,0,0,4.162-1.082,12.452,12.452,0,0,0,3.611-3.366V160.4Zm-16.12-14.411a2.953,2.953,0,0,1,4.334-.008,3.635,3.635,0,0,1,.826,2.5,3.587,3.587,0,0,1-.81,2.453,3.029,3.029,0,0,1-4.35-.012,3.528,3.528,0,0,1-.825-2.441,3.66,3.66,0,0,1,.825-2.489" transform="translate(-231 -124.843)" fill="#075484"/>
  <rect id="l" width="11.563" height="35.551" transform="translate(55.143)" fill="#075484"/>
  <path id="a-2" data-name="a" d="M328.771,160.4V136.641H317.762V139.8a10.425,10.425,0,0,0-3.344-2.925,8.5,8.5,0,0,0-4.012-.948,8.288,8.288,0,0,0-6.931,3.518q-2.659,3.519-2.654,9.29a14.285,14.285,0,0,0,2.722,9.026,8.347,8.347,0,0,0,6.86,3.505,8.209,8.209,0,0,0,4.159-1.082,12.355,12.355,0,0,0,3.612-3.366V160.4Zm-16.125-14.411a2.957,2.957,0,0,1,4.338-.008,3.649,3.649,0,0,1,.825,2.5,3.563,3.563,0,0,1-.812,2.453,3.03,3.03,0,0,1-4.351-.012,3.53,3.53,0,0,1-.821-2.441,3.663,3.663,0,0,1,.821-2.489" transform="translate(-231 -124.843)" fill="#075484"/>
  <path id="r" d="M332.469,160.393V136.641h11.2v3.342a10.419,10.419,0,0,1,3.321-3.042,8.249,8.249,0,0,1,4.058-1.012c.226,0,.4,0,.517.009s.214.018.313.032v11.52a10.111,10.111,0,0,0-1.769-.779,4.933,4.933,0,0,0-1.469-.253,4.638,4.638,0,0,0-3.406,1.194,4.5,4.5,0,0,0-1.2,3.345v9.4Z" transform="translate(-231 -124.843)" fill="#075484"/>
  <path id="y" d="M362.318,157.394l-10.267-21.667h12.606l1.785,6.064.071.232a42.55,42.55,0,0,1,1.466,6.454q.666-2.777,1.066-4.421c.271-1.094.48-1.894.632-2.4l1.742-5.928h11.827l-14.463,33.414H356.542Z" transform="translate(-231 -124.843)" fill="#075484"/>
  <g id="reserved" transform="translate(212.602 21.507)">
    <path id="circle" d="M445.357,152.054A3.524,3.524,0,1,1,449,148.532,3.588,3.588,0,0,1,445.357,152.054Zm0-6.549a3.029,3.029,0,1,0,3.148,3.027A3.093,3.093,0,0,0,445.357,145.505Z" transform="translate(-443.602 -146.349)" fill="#075484"/>
    <path id="R-2" data-name="R" d="M443.6,150.516v-4.167h1.769a3.017,3.017,0,0,1,.97.112.954.954,0,0,1,.485.4,1.2,1.2,0,0,1,.183.657,1.114,1.114,0,0,1-.277.775,1.329,1.329,0,0,1-.824.385,1.927,1.927,0,0,1,.45.349,4.584,4.584,0,0,1,.479.677l.51.813H446.34l-.608-.907a5.937,5.937,0,0,0-.443-.613.652.652,0,0,0-.252-.173,1.4,1.4,0,0,0-.424-.047h-.171v1.74Zm.84-2.4h.623a3.137,3.137,0,0,0,.755-.052.458.458,0,0,0,.237-.175.553.553,0,0,0,.085-.314.5.5,0,0,0-.112-.339.523.523,0,0,0-.318-.164q-.1-.013-.613-.014h-.657Z" transform="translate(-443.602 -146.349)" fill="#075484"/>
  </g>
<script xmlns=""/></svg>