<svg width="77" height="16" viewBox="0 0 77 16" fill="none" xmlns="http://www.w3.org/2000/svg">
<path d="M34.1404 13.4649H27.8292L26.7693 16H23L30.3275 0H31.5528L39 16H35.2307L34.1404 13.4649ZM32.913 10.657L30.9543 5.64706L29.0109 10.657H32.913Z" fill="#222222"/>
<path d="M52 9.50369V16H48.24V10.232C48.24 8.96531 47.9355 8.02705 46.5 8.02705C45.8685 8.02985 45.2532 8.2264 44.7376 8.59001V16H41V5.30834H44.1352L44.536 6.34043C45.5125 5.47138 46.7769 4.99388 48.0855 5.00006C50.5668 5.00229 52 6.5035 52 9.50369Z" fill="#222222"/>
<path d="M64 5L59.3947 16H56.6974L52 5H55.7982L58.0351 11.5954L60.1996 5H64Z" fill="#222222"/>
<path d="M65 2C65 1.46957 65.2107 0.960859 65.5858 0.585786C65.9609 0.210714 66.4696 0 67 0C67.5304 0 68.0391 0.210714 68.4142 0.585786C68.7893 0.960859 69 1.46957 69 2C69 2.53043 68.7893 3.03914 68.4142 3.41421C68.0391 3.78929 67.5304 4 67 4C66.4696 4 65.9609 3.78929 65.5858 3.41421C65.2107 3.03914 65 2.53043 65 2Z" fill="#222222"/>
<path d="M69 5H66V16H69V5Z" fill="#222222"/>
<path d="M72 12.9116V0H75.503V12.2719C75.503 13.3572 75.9842 13.6153 77 13.4124V15.5014C76.5851 15.722 75.95 16 74.7887 16C73.1163 16 72 15.3889 72 12.9116Z" fill="#222222"/>
<g clip-path="url(#clip0)">
<path d="M0 0H6.79366V5.33736H4.21917C3.10059 5.33736 2.0278 4.89317 1.23662 4.10245C0.445441 3.31172 0.000640283 2.23918 0 1.1206V0Z" fill="#222222"/>
<path d="M21.1972 5.33741V0.00488281H9.14585V5.33741H9.15309V10.6699H2.58887V16.0001H7.94555H13.2757H18.5768V10.6699H14.4832V5.33741H21.1972Z" fill="#222222"/>
<path d="M9.17769 8.00123C9.17802 8.3545 9.10851 8.70434 8.97318 9.03065C8.83785 9.35696 8.63935 9.65331 8.38911 9.90266C8.13887 10.152 7.84181 10.3494 7.51501 10.4836C7.18821 10.6177 6.83812 10.686 6.48486 10.6844H17.1934C16.4818 10.6844 15.7993 10.4017 15.2961 9.89852C14.7929 9.39533 14.5102 8.71285 14.5102 8.00123C14.5082 7.29647 14.7838 6.61926 15.2774 6.11619C15.771 5.61312 16.4428 5.32466 17.1475 5.31323H9.15113" fill="#222222"/>
</g>
<defs>
<clipPath id="clip0">
<rect width="21.1973" height="16" fill="white"/>
</clipPath>
</defs>
<script xmlns=""/></svg>