<svg width="80" height="27" viewBox="0 0 80 27" fill="none" xmlns="http://www.w3.org/2000/svg">
<path fill-rule="evenodd" clip-rule="evenodd" d="M6.3604 19.4621C5.22858 19.4621 4.23767 19.3558 3.38858 19.144C2.42747 18.8952 1.48264 18.5874 0.559489 18.2221V13.8303C2.46858 15.194 4.47403 15.8758 6.57222 15.8758C7.37403 15.8758 7.95767 15.7467 8.32312 15.4894C8.68858 15.2321 8.87131 14.8803 8.87131 14.4331C8.87131 13.9194 8.57676 13.5394 7.98676 13.294C7.39767 13.0485 6.45403 12.7794 5.15767 12.4894C3.78949 12.2212 2.66403 11.6849 1.77949 10.8803C0.894943 10.0758 0.453125 8.90214 0.453125 7.36033C0.453125 6.04214 0.807671 4.9576 1.51403 4.10851C2.22091 3.25943 3.14357 2.61658 4.18494 2.2476C5.25767 1.85669 6.37131 1.66124 7.52767 1.66124C8.94222 1.66124 10.0913 1.77851 10.9759 2.01305C11.7613 2.22214 12.5322 2.53124 13.2895 2.94214C13.3859 2.99396 14.2231 3.60305 14.3186 3.6576C14.3186 3.6576 14.0077 4.10851 13.8877 4.84305C13.774 5.53851 13.7604 7.16124 13.7604 7.16124C12.5577 6.53578 11.4422 5.95215 10.7813 5.68396C10.1213 5.41578 9.35403 5.28124 8.48222 5.28124C7.60949 5.28124 6.96131 5.41033 6.53676 5.6676C6.11222 5.92396 5.9004 6.2876 5.9004 6.75669C5.9004 7.31578 6.13676 7.72305 6.60767 7.98033C7.07949 8.2376 7.83403 8.50033 8.87131 8.76851C10.0504 9.05942 10.9822 9.34396 11.6659 9.62305C12.3495 9.90214 12.9631 10.3831 13.5049 11.064C14.0477 11.7458 14.3186 12.7012 14.3186 13.9303C14.2713 15.8531 13.5049 17.2549 12.0186 18.1376C10.534 19.0203 8.64767 19.4621 6.3604 19.4621ZM23.9395 1.42578C26.8168 1.42578 29.0449 2.13578 30.6249 3.55487C32.204 4.97396 32.994 7.3376 32.994 10.6458C32.994 13.3049 32.2868 15.4394 30.8722 17.0485C29.4577 18.6576 27.524 19.4621 25.0713 19.4621C23.2795 19.4621 21.7822 19.1603 20.5795 18.5567V25.0267H15.4159V5.58305C15.4159 4.21942 16.2113 3.19214 17.8022 2.49942C19.394 1.80669 21.4404 1.44851 23.9395 1.42669V1.42578ZM23.5149 15.4394C24.9531 15.4394 26.0149 15.0594 26.6986 14.2994C27.3822 13.5394 27.724 12.2658 27.724 10.4776C27.724 8.86851 27.424 7.65578 26.8222 6.84124C26.2213 6.02487 25.1895 5.61669 23.7277 5.61669C21.6286 5.61669 20.5795 5.99669 20.5795 6.75669V14.7349C21.004 14.9803 21.4749 15.1594 21.994 15.2712C22.5122 15.3831 23.0195 15.4394 23.5149 15.4394ZM42.5095 1.49396C44.4668 1.49396 46.2468 1.92396 47.8504 2.78487C49.454 3.64487 50.2559 5.19214 50.2559 7.42669L50.2195 15.4394C50.1968 16.8476 49.454 17.8694 47.9922 18.5067C46.5295 19.1431 44.3959 19.4612 41.5895 19.4612C36.3549 19.4612 33.7368 17.5285 33.7368 13.6621C33.7368 12.0312 34.2731 10.7567 35.3459 9.84124C36.4195 8.92487 38.0168 8.46669 40.1395 8.46669C41.0122 8.46669 41.8849 8.57214 42.7577 8.78487C43.6295 8.9976 44.384 9.27124 45.0213 9.60578V8.53305C45.0213 6.58942 43.7004 5.61669 41.0595 5.61669C40.0449 5.61669 39.0013 5.78942 37.9286 6.13669C36.8559 6.48215 36.4786 6.58578 35.8422 7.0776C35.8422 7.0776 35.5831 5.75033 35.3468 5.11396C35.1404 4.5576 34.5131 3.50124 34.5131 3.50124C34.7449 3.35487 35.8731 2.68305 36.1949 2.55124C36.754 2.32124 37.4504 2.11396 38.2822 1.92942C39.5913 1.63851 41.0004 1.49305 42.5095 1.49305V1.49396ZM41.7668 15.9421C42.9931 15.9421 43.8413 15.864 44.3131 15.7076C44.7849 15.5512 45.0204 15.2376 45.0204 14.7685V12.1549C44.1949 11.8867 43.2877 11.7521 42.2968 11.7521C41.1422 11.7521 40.2986 11.9149 39.7677 12.2385C39.2377 12.5631 38.9722 13.0712 38.9722 13.764C38.9722 14.4121 39.2495 14.9367 39.8031 15.3394C40.3577 15.7421 41.0122 15.9421 41.7668 15.9421ZM56.3577 1.87851C57.3945 1.6287 58.4567 1.49936 59.5231 1.49305C61.4795 1.49305 62.9949 1.83214 63.7495 2.39124C63.7495 2.39124 62.9131 3.54305 62.5331 4.14578C62.1877 4.69578 61.5759 5.85124 61.5759 5.85124C61.5759 5.85124 60.3831 5.68396 59.5231 5.68396C58.414 5.68396 57.5068 5.73942 56.7995 5.85124V18.9594H51.5286V3.80578C51.5286 3.80578 52.7913 3.13305 53.3459 2.89669C54.7913 2.28033 55.8295 2.00305 56.3577 1.87851ZM71.2649 1.4276C76.854 1.4276 79.6122 4.88033 79.5422 11.7858H67.7286C68.1768 14.1331 69.8395 15.3058 72.7159 15.3058C73.5886 15.3058 74.4431 15.1885 75.2804 14.954C76.1168 14.7194 77.0077 14.4121 77.9513 14.0321V18.3231C76.0177 19.0831 73.8477 19.4631 71.4422 19.4631C69.6268 19.4631 68.0349 19.1112 66.6677 18.4067C65.3303 17.7318 64.2226 16.6763 63.484 15.3731C62.7295 14.0549 62.3522 12.5012 62.3522 10.7131C62.3522 7.76305 63.1249 5.47851 64.6695 3.85851C66.214 2.23669 68.4122 1.42578 71.2659 1.42578L71.2649 1.4276ZM71.0531 5.24942C69.1659 5.24942 68.0459 6.36669 67.6922 8.60124H74.3068C74.1422 7.39487 73.8059 6.53396 73.2986 6.01942C72.7922 5.50578 72.0431 5.24942 71.0531 5.24942Z" fill="#352C5F"/>
<script xmlns=""/></svg>